HIERARCHY
ROOT Hips
{
  OFFSET 5.72205e-005 65.662 3.42586
  CHANNELS 6 Xposition Yposition Zposition Zrotation Xrotation Yrotation
  JOINT Chest
  {
    OFFSET 0 8.7983 -4.7612
    CHANNELS 3 Zrotation Xrotation Yrotation
    JOINT Chest2
    {
      OFFSET 0 8.0291 0.4195
      CHANNELS 3 Zrotation Xrotation Yrotation
      JOINT Chest3
      {
        OFFSET 0 9.9351 -2.2114
        CHANNELS 3 Zrotation Xrotation Yrotation
        JOINT Neck
        {
          OFFSET 0 22.3885 -0.4656
          CHANNELS 3 Zrotation Xrotation Yrotation
          JOINT Head
          {
            OFFSET -0.0001 12.643 3.4389
            CHANNELS 3 Zrotation Xrotation Yrotation
            End Site
            {
              OFFSET 0.0001 17.6655 0.5274
            }
          }
        }
        JOINT LeftCollar
        {
          OFFSET 2.2603 21.606 7.4023
          CHANNELS 3 Zrotation Xrotation Yrotation
          JOINT LeftShoulder
          {
            OFFSET 13.5163 -1.1332 -5.0146
            CHANNELS 3 Zrotation Xrotation Yrotation
            JOINT LeftElbow
            {
              OFFSET -0.0995 -28.05 -0.2431
              CHANNELS 3 Zrotation Xrotation Yrotation
              JOINT LeftWrist
              {
                OFFSET 0.0679 -23.3996 -0.1402
                CHANNELS 3 Zrotation Xrotation Yrotation
                JOINT LeftFinger1
                {
                  OFFSET 0.7932 -9.069 2.5189
                  CHANNELS 3 Zrotation Xrotation Yrotation
                  JOINT LeftFinger11
                  {
                    OFFSET -0.8272 -3.3923 0.5977
                    CHANNELS 3 Zrotation Xrotation Yrotation
                    JOINT LeftFinger12
                    {
                      OFFSET -0.5649 -2.3158 0.4082
                      CHANNELS 3 Zrotation Xrotation Yrotation
                      End Site
                      {
                        OFFSET -0.4919 -1.6479 0.2673
                      }
                    }
                  }
                }
                JOINT LeftFinger2
                {
                  OFFSET 0.9159 -9.2044 0.2193
                  CHANNELS 3 Zrotation Xrotation Yrotation
                  JOINT LeftFinger21
                  {
                    OFFSET 0.0117 -4.1944 -0.0248
                    CHANNELS 3 Zrotation Xrotation Yrotation
                    JOINT LeftFinger22
                    {
                      OFFSET 0.0071 -2.3249 -0.0142
                      CHANNELS 3 Zrotation Xrotation Yrotation
                      End Site
                      {
                        OFFSET -0.1475 -2.0882 0.0028
                      }
                    }
                  }
                }
                JOINT LeftFinger3
                {
                  OFFSET 0.6113 -8.7231 -2.0637
                  CHANNELS 3 Zrotation Xrotation Yrotation
                  JOINT LeftFinger31
                  {
                    OFFSET -0.1927 -3.8059 -0.2383
                    CHANNELS 3 Zrotation Xrotation Yrotation
                    JOINT LeftFinger32
                    {
                      OFFSET -0.1091 -2.1688 -0.1362
                      CHANNELS 3 Zrotation Xrotation Yrotation
                      End Site
                      {
                        OFFSET -0.2358 -1.9176 -0.0906
                      }
                    }
                  }
                }
                JOINT LeftFinger4
                {
                  OFFSET -0.6151 -8.0947 -3.5641
                  CHANNELS 3 Zrotation Xrotation Yrotation
                  JOINT LeftFinger41
                  {
                    OFFSET -0.4882 -2.341 -0.6462
                    CHANNELS 3 Zrotation Xrotation Yrotation
                    JOINT LeftFinger42
                    {
                      OFFSET -0.3575 -1.7167 -0.4742
                      CHANNELS 3 Zrotation Xrotation Yrotation
                      End Site
                      {
                        OFFSET -0.4187 -1.5237 -0.3496
                      }
                    }
                  }
                }
                JOINT LeftFinger0
                {
                  OFFSET -1.42 -1.8761 1.4223
                  CHANNELS 3 Zrotation Xrotation Yrotation
                  JOINT LeftFinger01
                  {
                    OFFSET -1.1471 -3.4929 2.6334
                    CHANNELS 3 Zrotation Xrotation Yrotation
                    JOINT LeftFinger02
                    {
                      OFFSET -0.823 -2.3 1.6571
                      CHANNELS 3 Zrotation Xrotation Yrotation
                      End Site
                      {
                        OFFSET -0.5822 -1.6914 1.1582
                      }
                    }
                  }
                }
              }
            }
          }
        }
        JOINT RightCollar
        {
          OFFSET -2.2603 21.606 7.4023
          CHANNELS 3 Zrotation Xrotation Yrotation
          JOINT RightShoulder
          {
            OFFSET -13.5187 -1.1334 -5.0155
            CHANNELS 3 Zrotation Xrotation Yrotation
            JOINT RightElbow
            {
              OFFSET 0.0994 -28.0499 -0.2431
              CHANNELS 3 Zrotation Xrotation Yrotation
              JOINT RightWrist
              {
                OFFSET -0.0679 -23.3996 -0.1402
                CHANNELS 3 Zrotation Xrotation Yrotation
                JOINT RightFinger1
                {
                  OFFSET -0.7932 -9.0691 2.5189
                  CHANNELS 3 Zrotation Xrotation Yrotation
                  JOINT RightFinger11
                  {
                    OFFSET 0.8272 -3.3923 0.5977
                    CHANNELS 3 Zrotation Xrotation Yrotation
                    JOINT RightFinger12
                    {
                      OFFSET 0.565 -2.3158 0.4082
                      CHANNELS 3 Zrotation Xrotation Yrotation
                      End Site
                      {
                        OFFSET 0.4919 -1.6479 0.2673
                      }
                    }
                  }
                }
                JOINT RightFinger2
                {
                  OFFSET -0.916 -9.2044 0.2193
                  CHANNELS 3 Zrotation Xrotation Yrotation
                  JOINT RightFinger21
                  {
                    OFFSET -0.0117 -4.1944 -0.0248
                    CHANNELS 3 Zrotation Xrotation Yrotation
                    JOINT RightFinger22
                    {
                      OFFSET -0.0071 -2.3249 -0.0142
                      CHANNELS 3 Zrotation Xrotation Yrotation
                      End Site
                      {
                        OFFSET 0.1475 -2.0882 0.0028
                      }
                    }
                  }
                }
                JOINT RightFinger3
                {
                  OFFSET -0.6113 -8.7231 -2.0637
                  CHANNELS 3 Zrotation Xrotation Yrotation
                  JOINT RightFinger31
                  {
                    OFFSET 0.1927 -3.8059 -0.2383
                    CHANNELS 3 Zrotation Xrotation Yrotation
                    JOINT RightFinger32
                    {
                      OFFSET 0.1091 -2.1688 -0.1362
                      CHANNELS 3 Zrotation Xrotation Yrotation
                      End Site
                      {
                        OFFSET 0.2358 -1.9176 -0.0906
                      }
                    }
                  }
                }
                JOINT RightFinger4
                {
                  OFFSET 0.6151 -8.0947 -3.564
                  CHANNELS 3 Zrotation Xrotation Yrotation
                  JOINT RightFinger41
                  {
                    OFFSET 0.4882 -2.341 -0.6462
                    CHANNELS 3 Zrotation Xrotation Yrotation
                    JOINT RightFinger42
                    {
                      OFFSET 0.3574 -1.7166 -0.4742
                      CHANNELS 3 Zrotation Xrotation Yrotation
                      End Site
                      {
                        OFFSET 0.4187 -1.5237 -0.3496
                      }
                    }
                  }
                }
                JOINT RightFinger0
                {
                  OFFSET 1.4199 -1.8761 1.4221
                  CHANNELS 3 Zrotation Xrotation Yrotation
                  JOINT RightFinger01
                  {
                    OFFSET 1.1472 -3.4929 2.6336
                    CHANNELS 3 Zrotation Xrotation Yrotation
                    JOINT RightFinger02
                    {
                      OFFSET 0.8229 -2.3 1.6571
                      CHANNELS 3 Zrotation Xrotation Yrotation
                      End Site
                      {
                        OFFSET 0.5822 -1.6914 1.1582
                      }
                    }
                  }
                }
              }
            }
          }
        }
      }
    }
  }
  JOINT RightHip
  {
    OFFSET -9.412 3.9771 -0.7758
    CHANNELS 3 Zrotation Xrotation Yrotation
    JOINT RightKnee
    {
      OFFSET -0.7531 -40.938 0
      CHANNELS 3 Zrotation Xrotation Yrotation
      JOINT RightAnkle
      {
        OFFSET 0 -40.1986 0
        CHANNELS 3 Zrotation Xrotation Yrotation
        JOINT RightToe
        {
          OFFSET 0 -4.4182 9.239
          CHANNELS 3 Zrotation Xrotation Yrotation
          End Site
          {
            OFFSET 0 0 6.1981
          }
        }
      }
    }
  }
  JOINT LeftHip
  {
    OFFSET 9.4119 3.9773 -0.7758
    CHANNELS 3 Zrotation Xrotation Yrotation
    JOINT LeftKnee
    {
      OFFSET 0.7532 -40.9383 0
      CHANNELS 3 Zrotation Xrotation Yrotation
      JOINT LeftAnkle
      {
        OFFSET 0 -40.1986 0
        CHANNELS 3 Zrotation Xrotation Yrotation
        JOINT LeftToe
        {
          OFFSET 0 -4.4182 9.239
          CHANNELS 3 Zrotation Xrotation Yrotation
          End Site
          {
            OFFSET 0 0 6.1981
          }
        }
      }
    }
  }
}
MOTION
Frames:	4
Frame Time:	0.0333333
5.72205e-005 65.662 3.42586 0 0 -0 0 0 -0 0 0 -0 0 0 -0 0 0 -0 0 0 -0 0 0 -12.5014 88.1196 14.2451 10.6914 -0.00160068 -0.00239207 0.000740045 -8.4365e-005 7.00714e-005 -9.52055e-007 9.93923e-017 -1.98785e-016 -1.59028e-015 9.93923e-017 -5.96354e-016 -1.59028e-015 -9.93923e-017 -5.96354e-016 -1.59028e-015 9.93923e-017 -1.98785e-016 -1.59028e-015 -0.0128176 0.00232552 8.52707e-005 9.93923e-017 5.96354e-016 -0 9.93923e-017 -1.98785e-016 -1.59028e-015 -0.0160551 0.00299681 0.000857156 -2.48481e-016 0 3.18055e-015 9.93923e-017 -1.98785e-016 -1.59028e-015 -0.0125865 0.0031206 0.00282719 0 1.98785e-016 -0 9.93923e-017 -1.98785e-016 -1.59028e-015 9.93923e-017 -5.96354e-016 -1.59028e-015 -9.93923e-017 -5.96354e-016 -1.59028e-015 -0.865644 0.16582 7.03859 -88.0329 10.2057 -10.5567 0.0015593 -0.00248883 -0.000788628 7.87605e-005 4.10553e-005 1.24965e-005 -3.97569e-016 -7.95139e-016 3.18055e-015 -1.98785e-016 -3.97569e-016 3.18055e-015 -1.98785e-016 0 3.18055e-015 -3.97569e-016 -7.95139e-016 3.18055e-015 0.0129473 0.00231697 -8.70038e-005 9.93923e-017 -7.95139e-016 1.59028e-015 -3.97569e-016 -7.95139e-016 3.18055e-015 0.0163314 0.00303369 -0.000872333 3.97569e-016 7.95139e-016 -3.18055e-015 -3.97569e-016 -7.95139e-016 3.18055e-015 0.0145763 0.00367772 -0.00326275 9.93923e-017 -3.97569e-016 -0 -3.97569e-016 -7.95139e-016 3.18055e-015 -1.98785e-016 -3.97569e-016 3.18055e-015 -1.98785e-016 0 3.18055e-015 3.42482 1.32465 -0.0626183 0.000117508 0.717283 0.000978199 -3.4257 -2.04197 -0.0604716 6.47761e-025 0 -0 -3.42483 1.34017 0.0627307 -0.000193936 0.682302 -0.0013703 3.42574 -2.02253 0.0595886 -8.45714e-024 0 -7.40531e-025 
1.63366 42.0566 -2.42276 8.64966e-009 38.9981 7.99158e-008 0.259335 -4.77612 -0.262188 0.499263 -9.55334 -0.50524 0.499265 -9.55337 -0.505241 4.12034e-006 0.326905 -4.5334e-006 0.148628 0.312988 -0.000404051 -20.1002 -4.27549 -35.9487 49.1377 23.9003 -40.7743 -5.74605 -15.1686 -2.91747 27.1584 -41.31 7.78238 -1.76556e-031 -3.18055e-015 -3.18055e-015 3.18055e-015 -5.56597e-015 -1.59028e-015 3.18055e-015 -3.97569e-015 -1.59028e-015 -1.76556e-031 -3.18055e-015 -3.18055e-015 -0.0127989 0.00232574 8.80786e-005 -9.54166e-015 -1.59028e-015 -3.97569e-015 -1.76556e-031 -3.18055e-015 -3.18055e-015 -0.0160877 0.00299145 0.000855447 -4.41391e-032 1.59028e-015 1.59028e-015 -1.76556e-031 -3.18055e-015 -3.18055e-015 -0.0125967 0.00312329 0.00283866 -3.18055e-015 1.59028e-015 1.59028e-015 -1.76556e-031 -3.18055e-015 -3.18055e-015 3.18055e-015 -5.56597e-015 -1.59028e-015 3.18055e-015 -3.97569e-015 -1.59028e-015 13.8809 2.16031 -32.8963 -17.3087 -73.2929 -31.4005 98.2568 -31.2888 74.8052 33.7698 -8.14181 -35.7049 2.68813e-006 6.24174e-006 -1.03229e-006 2.68813e-006 -8.3007e-006 -1.03228e-006 -2.68813e-006 8.3007e-006 1.03229e-006 2.68813e-006 6.24174e-006 -1.03229e-006 0.0129301 0.00232999 -7.30071e-005 3.18055e-015 3.18055e-015 -6.36111e-015 2.68813e-006 6.24174e-006 -1.03229e-006 0.0163445 0.00304119 -0.000872555 3.18055e-015 4.77083e-015 6.36111e-015 2.68813e-006 6.24174e-006 -1.03229e-006 0.0146116 0.00369677 -0.00326834 -2.24963e-006 1.35993e-006 3.84012e-006 2.68813e-006 6.24174e-006 -1.03229e-006 2.68813e-006 -8.3007e-006 -1.03228e-006 -2.68813e-006 8.3007e-006 1.03229e-006 -59.0224 -26.3752 -23.983 -178.1 83.0625 176.934 52.1931 33.3822 -57.7236 2.94165e-006 2.13252e-007 4.19288e-006 59.0037 -26.3867 23.956 178.227 83.0536 -177.077 -52.2239 33.3608 57.7302 8.65386e-006 -1.53802e-006 -3.81404e-006 
1.63363 41.898 -1.90516 4.55314e-009 37.564 -7.46849e-009 0.257286 -4.44413 -0.264283 0.496188 -8.88935 -0.510794 0.496189 -8.88937 -0.510795 -2.08154e-006 0.491751 2.09625e-006 0.295385 0.623553 -0.0291935 -19.8223 -4.90578 -36.4229 48.9144 23.9376 -40.6997 -5.98327 -15.6369 -2.98853 26.7935 -40.7371 7.61979 -2.42365e-006 1.01237e-005 2.25668e-006 -4.10243e-007 -1.43394e-005 -9.81585e-007 -1.11789e-005 4.00846e-006 5.00407e-006 -2.42365e-006 1.01237e-005 2.25668e-006 -0.0128224 0.00232239 9.53413e-005 -9.46681e-006 -2.58154e-006 1.00423e-007 -2.42365e-006 1.01237e-005 2.25668e-006 -0.0160416 0.00298933 0.000866153 -4.50398e-006 -2.8692e-006 8.3449e-007 -2.42365e-006 1.01237e-005 2.25668e-006 -0.0125877 0.00312063 0.002841 -1.109e-005 -1.9947e-006 2.47075e-007 -2.42365e-006 1.01237e-005 2.25668e-006 -4.10243e-007 -1.43394e-005 -9.81585e-007 -1.11789e-005 4.00846e-006 5.00407e-006 13.612 1.99324 -32.2695 -18.4848 -73.3302 -32.5972 98.1324 -31.4916 74.728 33.5954 -8.00535 -35.7911 -4.34816e-006 1.23911e-005 6.49746e-006 6.3006e-007 -1.58934e-005 -9.90292e-006 -1.13851e-005 1.24589e-005 1.40256e-005 -4.34816e-006 1.23911e-005 6.49746e-006 0.0129636 0.00231338 -8.93187e-005 4.92581e-006 -2.70729e-006 -6.67734e-007 -4.34816e-006 1.23911e-005 6.49746e-006 0.0163059 0.003021 -0.000890145 1.29623e-005 7.5695e-006 4.64332e-006 -4.34816e-006 1.23911e-005 6.49746e-006 0.0146153 0.00368407 -0.00327139 2.68928e-006 -5.44888e-006 -1.0306e-006 -4.34816e-006 1.23911e-005 6.49746e-006 6.3006e-007 -1.58934e-005 -9.90292e-006 -1.13851e-005 1.24589e-005 1.40256e-005 -58.9487 -24.6 -23.6168 -178.11 83.5914 176.929 51.0212 34.0102 -57.0271 -8.3374e-007 -4.418e-007 4.73056e-006 58.9356 -24.6066 23.599 178.252 83.5837 -177.086 -51.0429 33.995 57.0295 9.74912e-007 -2.93469e-006 1.40153e-006 
1.6336 41.7434 -1.38538 -6.68323e-008 36.1262 2.64803e-007 0.255235 -4.11162 -0.266338 0.49316 -8.22432 -0.516258 0.493161 -8.22434 -0.516259 6.37528e-006 0.656439 -6.7724e-006 0.442395 0.93422 -0.0587975 -19.5491 -5.53911 -36.895 48.6906 23.976 -40.6248 -6.22058 -16.1059 -3.06184 26.4336 -40.163 7.46328 -2.16349e-006 -3.29418e-006 9.26613e-006 -5.67664e-006 5.2746e-006 -3.38417e-006 -4.46231e-006 -6.60315e-006 -4.51067e-006 -2.16349e-006 -3.29418e-006 9.26613e-006 -0.0128547 0.002332 8.82766e-005 -6.79459e-006 -1.14845e-006 -7.01085e-006 -2.16349e-006 -3.29418e-006 9.26613e-006 -0.0160501 0.00300067 0.000859035 -2.28935e-006 2.23711e-007 -7.84325e-006 -2.16349e-006 -3.29418e-006 9.26613e-006 -0.0125712 0.00312784 0.00282475 -9.46844e-006 -1.19924e-007 9.59134e-008 -2.16349e-006 -3.29418e-006 9.26613e-006 -5.67664e-006 5.2746e-006 -3.38417e-006 -4.46231e-006 -6.60315e-006 -4.51067e-006 13.3449 1.82292 -31.6432 -19.6658 -73.3606 -33.7988 98.0075 -31.6943 74.6502 33.4213 -7.8686 -35.8768 0 0 -3.18055e-015 3.14148e-006 -6.48021e-006 -2.42264e-006 -1.9312e-006 7.03609e-006 -1.65019e-006 0 0 -3.18055e-015 0.0129392 0.00230824 -9.12533e-005 -1.1313e-005 3.61415e-006 -5.9152e-006 0 0 -3.18055e-015 0.0163545 0.00301874 -0.00088648 -6.11916e-006 1.27322e-005 5.3638e-007 0 0 -3.18055e-015 0.014585 0.00368278 -0.00326637 6.36111e-015 -6.36111e-015 -0 0 0 -3.18055e-015 3.14148e-006 -6.48021e-006 -2.42264e-006 -1.9312e-006 7.03609e-006 -1.65019e-006 -58.8861 -22.8212 -23.2568 -178.123 84.1183 176.928 49.8276 34.623 -56.3063 -8.90063e-006 -2.17308e-006 1.24865e-005 58.8784 -22.8229 23.248 178.284 84.112 -177.102 -49.8399 34.6139 56.304 -1.9384e-006 -1.8358e-006 -2.81088e-006 
